<mxfile host="app.diagrams.net" modified="2023-12-08T18:50:23.242Z" agent="Mozilla/5.0 (Windows NT 10.0; Win64; x64) AppleWebKit/537.36 (KHTML, like Gecko) Chrome/118.0.5993.2470 YaBrowser/23.11.0.2470 Yowser/2.5 Safari/537.36" etag="Nj0f_a-C4tOIOw11kGAX" version="22.1.7" type="github">
  <diagram name="Страница — 1" id="C_sGMyFnlWvZYpv4OTZl">
    <mxGraphModel dx="2422" dy="968" grid="1" gridSize="10" guides="1" tooltips="1" connect="1" arrows="1" fold="1" page="1" pageScale="1" pageWidth="827" pageHeight="1169" math="0" shadow="0">
      <root>
        <mxCell id="0" />
        <mxCell id="1" parent="0" />
        <mxCell id="ezo1uKIcZUBa7nDMjUo9-1" value="Клиент фирмы" style="shape=umlActor;verticalLabelPosition=bottom;verticalAlign=top;html=1;outlineConnect=0;" parent="1" vertex="1">
          <mxGeometry x="30" y="180" width="30" height="60" as="geometry" />
        </mxCell>
        <mxCell id="ezo1uKIcZUBa7nDMjUo9-2" value="Сотрудник" style="shape=umlActor;verticalLabelPosition=bottom;verticalAlign=top;html=1;outlineConnect=0;" parent="1" vertex="1">
          <mxGeometry x="746" y="180" width="30" height="60" as="geometry" />
        </mxCell>
        <mxCell id="ezo1uKIcZUBa7nDMjUo9-6" value="Регистрация" style="ellipse;whiteSpace=wrap;html=1;" parent="1" vertex="1">
          <mxGeometry x="130" y="180" width="120" height="80" as="geometry" />
        </mxCell>
        <mxCell id="ezo1uKIcZUBa7nDMjUo9-7" value="Просмотр списка доступных вариантов" style="ellipse;whiteSpace=wrap;html=1;" parent="1" vertex="1">
          <mxGeometry x="130" y="290" width="120" height="80" as="geometry" />
        </mxCell>
        <mxCell id="ezo1uKIcZUBa7nDMjUo9-9" value="Авторизация" style="ellipse;whiteSpace=wrap;html=1;" parent="1" vertex="1">
          <mxGeometry x="550" y="180" width="120" height="80" as="geometry" />
        </mxCell>
        <mxCell id="ezo1uKIcZUBa7nDMjUo9-29" style="edgeStyle=orthogonalEdgeStyle;rounded=0;orthogonalLoop=1;jettySize=auto;html=1;entryX=1;entryY=0.5;entryDx=0;entryDy=0;" parent="1" target="ezo1uKIcZUBa7nDMjUo9-10" edge="1">
          <mxGeometry relative="1" as="geometry">
            <mxPoint x="670" y="330" as="targetPoint" />
            <mxPoint x="706" y="210" as="sourcePoint" />
            <Array as="points">
              <mxPoint x="706" y="330" />
            </Array>
          </mxGeometry>
        </mxCell>
        <mxCell id="ezo1uKIcZUBa7nDMjUo9-10" value="Добавить путевку" style="ellipse;whiteSpace=wrap;html=1;" parent="1" vertex="1">
          <mxGeometry x="550" y="290" width="116" height="80" as="geometry" />
        </mxCell>
        <mxCell id="ezo1uKIcZUBa7nDMjUo9-30" style="edgeStyle=orthogonalEdgeStyle;rounded=0;orthogonalLoop=1;jettySize=auto;html=1;entryX=1;entryY=0.5;entryDx=0;entryDy=0;" parent="1" target="ezo1uKIcZUBa7nDMjUo9-11" edge="1">
          <mxGeometry relative="1" as="geometry">
            <mxPoint x="671" y="439" as="targetPoint" />
            <mxPoint x="706" y="330" as="sourcePoint" />
            <Array as="points">
              <mxPoint x="706" y="440" />
            </Array>
          </mxGeometry>
        </mxCell>
        <mxCell id="ezo1uKIcZUBa7nDMjUo9-11" value="Удалить путевку" style="ellipse;whiteSpace=wrap;html=1;" parent="1" vertex="1">
          <mxGeometry x="550" y="400" width="120" height="80" as="geometry" />
        </mxCell>
        <mxCell id="ezo1uKIcZUBa7nDMjUo9-15" style="edgeStyle=orthogonalEdgeStyle;rounded=0;orthogonalLoop=1;jettySize=auto;html=1;exitX=0.5;exitY=0.5;exitDx=0;exitDy=0;exitPerimeter=0;entryX=0.023;entryY=0.376;entryDx=0;entryDy=0;entryPerimeter=0;" parent="1" source="ezo1uKIcZUBa7nDMjUo9-1" target="ezo1uKIcZUBa7nDMjUo9-6" edge="1">
          <mxGeometry relative="1" as="geometry">
            <mxPoint x="120" y="210" as="targetPoint" />
            <Array as="points">
              <mxPoint x="90" y="210" />
            </Array>
          </mxGeometry>
        </mxCell>
        <mxCell id="ezo1uKIcZUBa7nDMjUo9-17" style="edgeStyle=orthogonalEdgeStyle;rounded=0;orthogonalLoop=1;jettySize=auto;html=1;exitX=0.5;exitY=0.5;exitDx=0;exitDy=0;exitPerimeter=0;entryX=0.994;entryY=0.376;entryDx=0;entryDy=0;entryPerimeter=0;" parent="1" edge="1">
          <mxGeometry relative="1" as="geometry">
            <mxPoint x="761.72" y="209.86" as="sourcePoint" />
            <mxPoint x="670.0000000000002" y="209.93999999999994" as="targetPoint" />
          </mxGeometry>
        </mxCell>
        <mxCell id="ezo1uKIcZUBa7nDMjUo9-18" value="" style="endArrow=classic;html=1;rounded=0;" parent="1" edge="1">
          <mxGeometry width="50" height="50" relative="1" as="geometry">
            <mxPoint x="100" y="330" as="sourcePoint" />
            <mxPoint x="130" y="329.97" as="targetPoint" />
          </mxGeometry>
        </mxCell>
        <mxCell id="ezo1uKIcZUBa7nDMjUo9-19" value="" style="endArrow=none;html=1;rounded=0;" parent="1" edge="1">
          <mxGeometry width="50" height="50" relative="1" as="geometry">
            <mxPoint x="100" y="330" as="sourcePoint" />
            <mxPoint x="100" y="210" as="targetPoint" />
            <Array as="points">
              <mxPoint x="100" y="300" />
            </Array>
          </mxGeometry>
        </mxCell>
        <mxCell id="ezo1uKIcZUBa7nDMjUo9-23" value="" style="endArrow=none;html=1;rounded=0;" parent="1" edge="1">
          <mxGeometry width="50" height="50" relative="1" as="geometry">
            <mxPoint x="100" y="440" as="sourcePoint" />
            <mxPoint x="100" y="330" as="targetPoint" />
            <Array as="points">
              <mxPoint x="100" y="390" />
            </Array>
          </mxGeometry>
        </mxCell>
        <mxCell id="ezo1uKIcZUBa7nDMjUo9-24" value="Просмотреть клиентов" style="ellipse;whiteSpace=wrap;html=1;" parent="1" vertex="1">
          <mxGeometry x="550" y="510" width="120" height="80" as="geometry" />
        </mxCell>
        <mxCell id="ezo1uKIcZUBa7nDMjUo9-25" value="Редактировать путевку" style="ellipse;whiteSpace=wrap;html=1;" parent="1" vertex="1">
          <mxGeometry x="550" y="620" width="120" height="80" as="geometry" />
        </mxCell>
        <mxCell id="ezo1uKIcZUBa7nDMjUo9-26" value="Авторизация" style="ellipse;whiteSpace=wrap;html=1;" parent="1" vertex="1">
          <mxGeometry x="130" y="760" width="120" height="80" as="geometry" />
        </mxCell>
        <mxCell id="ezo1uKIcZUBa7nDMjUo9-27" value="Добавить сотрудника" style="ellipse;whiteSpace=wrap;html=1;" parent="1" vertex="1">
          <mxGeometry x="130" y="870" width="120" height="80" as="geometry" />
        </mxCell>
        <mxCell id="ezo1uKIcZUBa7nDMjUo9-28" value="Удалить сотрудника" style="ellipse;whiteSpace=wrap;html=1;" parent="1" vertex="1">
          <mxGeometry x="130" y="970" width="120" height="80" as="geometry" />
        </mxCell>
        <mxCell id="ezo1uKIcZUBa7nDMjUo9-31" style="edgeStyle=orthogonalEdgeStyle;rounded=0;orthogonalLoop=1;jettySize=auto;html=1;entryX=1;entryY=0.5;entryDx=0;entryDy=0;" parent="1" edge="1">
          <mxGeometry relative="1" as="geometry">
            <mxPoint x="670" y="550" as="targetPoint" />
            <mxPoint x="706" y="440" as="sourcePoint" />
            <Array as="points">
              <mxPoint x="706" y="550" />
            </Array>
          </mxGeometry>
        </mxCell>
        <mxCell id="ezo1uKIcZUBa7nDMjUo9-32" style="edgeStyle=orthogonalEdgeStyle;rounded=0;orthogonalLoop=1;jettySize=auto;html=1;entryX=1;entryY=0.5;entryDx=0;entryDy=0;" parent="1" edge="1">
          <mxGeometry relative="1" as="geometry">
            <mxPoint x="670" y="660" as="targetPoint" />
            <mxPoint x="706" y="550" as="sourcePoint" />
            <Array as="points">
              <mxPoint x="706" y="660" />
            </Array>
          </mxGeometry>
        </mxCell>
        <mxCell id="ezo1uKIcZUBa7nDMjUo9-33" style="edgeStyle=orthogonalEdgeStyle;rounded=0;orthogonalLoop=1;jettySize=auto;html=1;" parent="1" edge="1">
          <mxGeometry relative="1" as="geometry">
            <mxPoint x="124" y="900" as="targetPoint" />
            <mxPoint x="80" y="790" as="sourcePoint" />
            <Array as="points">
              <mxPoint x="80" y="900" />
            </Array>
          </mxGeometry>
        </mxCell>
        <mxCell id="ezo1uKIcZUBa7nDMjUo9-34" style="edgeStyle=orthogonalEdgeStyle;rounded=0;orthogonalLoop=1;jettySize=auto;html=1;entryX=0;entryY=0.5;entryDx=0;entryDy=0;" parent="1" edge="1">
          <mxGeometry relative="1" as="geometry">
            <mxPoint x="123.99999999999994" y="1010.0000000000002" as="targetPoint" />
            <mxPoint x="80" y="900" as="sourcePoint" />
            <Array as="points">
              <mxPoint x="80" y="1010" />
            </Array>
          </mxGeometry>
        </mxCell>
        <mxCell id="LzQifozW5vk0cQuSek3g-1" value="Админ" style="shape=umlActor;verticalLabelPosition=bottom;verticalAlign=top;html=1;outlineConnect=0;" parent="1" vertex="1">
          <mxGeometry x="30" y="760" width="30" height="60" as="geometry" />
        </mxCell>
        <mxCell id="LzQifozW5vk0cQuSek3g-3" style="edgeStyle=orthogonalEdgeStyle;rounded=0;orthogonalLoop=1;jettySize=auto;html=1;exitX=0.5;exitY=0.5;exitDx=0;exitDy=0;exitPerimeter=0;entryX=0;entryY=0.379;entryDx=0;entryDy=0;entryPerimeter=0;" parent="1" source="LzQifozW5vk0cQuSek3g-1" target="ezo1uKIcZUBa7nDMjUo9-26" edge="1">
          <mxGeometry relative="1" as="geometry" />
        </mxCell>
        <mxCell id="0u8Orc6x5gDxQ-lbuek--3" value="Просмотр истории покупок" style="ellipse;whiteSpace=wrap;html=1;" parent="1" vertex="1">
          <mxGeometry x="130" y="520" width="120" height="80" as="geometry" />
        </mxCell>
        <mxCell id="0u8Orc6x5gDxQ-lbuek--4" style="edgeStyle=orthogonalEdgeStyle;rounded=0;orthogonalLoop=1;jettySize=auto;html=1;entryX=0;entryY=0.5;entryDx=0;entryDy=0;" parent="1" target="0u8Orc6x5gDxQ-lbuek--3" edge="1">
          <mxGeometry relative="1" as="geometry">
            <mxPoint x="60" y="550" as="targetPoint" />
            <mxPoint x="100" y="440" as="sourcePoint" />
            <Array as="points">
              <mxPoint x="100" y="560" />
            </Array>
          </mxGeometry>
        </mxCell>
        <mxCell id="0u8Orc6x5gDxQ-lbuek--5" value="Просмотр истории покупок клиента" style="ellipse;whiteSpace=wrap;html=1;" parent="1" vertex="1">
          <mxGeometry x="550" y="730" width="120" height="80" as="geometry" />
        </mxCell>
        <mxCell id="0u8Orc6x5gDxQ-lbuek--6" style="edgeStyle=orthogonalEdgeStyle;rounded=0;orthogonalLoop=1;jettySize=auto;html=1;entryX=1;entryY=0.5;entryDx=0;entryDy=0;" parent="1" edge="1">
          <mxGeometry relative="1" as="geometry">
            <mxPoint x="670" y="770" as="targetPoint" />
            <mxPoint x="706" y="660" as="sourcePoint" />
            <Array as="points">
              <mxPoint x="706" y="770" />
            </Array>
          </mxGeometry>
        </mxCell>
        <mxCell id="0u8Orc6x5gDxQ-lbuek--8" value="Редактирование личных данных" style="ellipse;whiteSpace=wrap;html=1;" parent="1" vertex="1">
          <mxGeometry x="130" y="620" width="120" height="80" as="geometry" />
        </mxCell>
        <mxCell id="0u8Orc6x5gDxQ-lbuek--9" style="edgeStyle=orthogonalEdgeStyle;rounded=0;orthogonalLoop=1;jettySize=auto;html=1;entryX=0;entryY=0.5;entryDx=0;entryDy=0;" parent="1" target="0u8Orc6x5gDxQ-lbuek--8" edge="1">
          <mxGeometry relative="1" as="geometry">
            <mxPoint x="130" y="645" as="targetPoint" />
            <mxPoint x="100" y="440" as="sourcePoint" />
            <Array as="points">
              <mxPoint x="100" y="660" />
            </Array>
          </mxGeometry>
        </mxCell>
        <mxCell id="0u8Orc6x5gDxQ-lbuek--10" style="edgeStyle=orthogonalEdgeStyle;rounded=0;orthogonalLoop=1;jettySize=auto;html=1;entryX=-0.018;entryY=0.489;entryDx=0;entryDy=0;entryPerimeter=0;" parent="1" target="0u8Orc6x5gDxQ-lbuek--5" edge="1">
          <mxGeometry relative="1" as="geometry">
            <mxPoint x="300" y="790" as="targetPoint" />
            <mxPoint x="90" y="790" as="sourcePoint" />
            <Array as="points">
              <mxPoint x="80" y="790" />
              <mxPoint x="80" y="730" />
              <mxPoint x="480" y="730" />
              <mxPoint x="480" y="769" />
            </Array>
          </mxGeometry>
        </mxCell>
        <mxCell id="0u8Orc6x5gDxQ-lbuek--11" style="edgeStyle=orthogonalEdgeStyle;rounded=0;orthogonalLoop=1;jettySize=auto;html=1;entryX=0;entryY=0.5;entryDx=0;entryDy=0;" parent="1" target="ezo1uKIcZUBa7nDMjUo9-25" edge="1">
          <mxGeometry relative="1" as="geometry">
            <mxPoint x="414" y="699.97" as="targetPoint" />
            <mxPoint x="480" y="730" as="sourcePoint" />
            <Array as="points">
              <mxPoint x="480" y="660" />
            </Array>
          </mxGeometry>
        </mxCell>
        <mxCell id="0u8Orc6x5gDxQ-lbuek--12" style="edgeStyle=orthogonalEdgeStyle;rounded=0;orthogonalLoop=1;jettySize=auto;html=1;entryX=0;entryY=0.5;entryDx=0;entryDy=0;" parent="1" target="ezo1uKIcZUBa7nDMjUo9-24" edge="1">
          <mxGeometry relative="1" as="geometry">
            <mxPoint x="530" y="560" as="targetPoint" />
            <mxPoint x="480" y="660" as="sourcePoint" />
            <Array as="points">
              <mxPoint x="480" y="550" />
            </Array>
          </mxGeometry>
        </mxCell>
        <mxCell id="0u8Orc6x5gDxQ-lbuek--13" style="edgeStyle=orthogonalEdgeStyle;rounded=0;orthogonalLoop=1;jettySize=auto;html=1;entryX=0;entryY=0.5;entryDx=0;entryDy=0;" parent="1" target="ezo1uKIcZUBa7nDMjUo9-11" edge="1">
          <mxGeometry relative="1" as="geometry">
            <mxPoint x="546" y="440" as="targetPoint" />
            <mxPoint x="480" y="550" as="sourcePoint" />
            <Array as="points">
              <mxPoint x="480" y="440" />
            </Array>
          </mxGeometry>
        </mxCell>
        <mxCell id="0u8Orc6x5gDxQ-lbuek--14" style="edgeStyle=orthogonalEdgeStyle;rounded=0;orthogonalLoop=1;jettySize=auto;html=1;entryX=0;entryY=0.5;entryDx=0;entryDy=0;" parent="1" target="ezo1uKIcZUBa7nDMjUo9-10" edge="1">
          <mxGeometry relative="1" as="geometry">
            <mxPoint x="430" y="420" as="targetPoint" />
            <mxPoint x="480" y="440" as="sourcePoint" />
            <Array as="points">
              <mxPoint x="480" y="330" />
            </Array>
          </mxGeometry>
        </mxCell>
        <mxCell id="0u8Orc6x5gDxQ-lbuek--15" style="edgeStyle=orthogonalEdgeStyle;rounded=0;orthogonalLoop=1;jettySize=auto;html=1;entryX=0;entryY=0.5;entryDx=0;entryDy=0;" parent="1" target="ezo1uKIcZUBa7nDMjUo9-9" edge="1">
          <mxGeometry relative="1" as="geometry">
            <mxPoint x="390" y="330" as="targetPoint" />
            <mxPoint x="480" y="330" as="sourcePoint" />
            <Array as="points">
              <mxPoint x="490" y="220" />
              <mxPoint x="490" y="220" />
            </Array>
          </mxGeometry>
        </mxCell>
        <mxCell id="kGaTH9h_bWGYZD6-GTsU-1" value="Покупка путевки" style="ellipse;whiteSpace=wrap;html=1;" vertex="1" parent="1">
          <mxGeometry x="130" y="410" width="120" height="80" as="geometry" />
        </mxCell>
        <mxCell id="kGaTH9h_bWGYZD6-GTsU-2" value="" style="endArrow=classic;html=1;rounded=0;" edge="1" parent="1">
          <mxGeometry width="50" height="50" relative="1" as="geometry">
            <mxPoint x="100" y="450" as="sourcePoint" />
            <mxPoint x="130" y="450" as="targetPoint" />
          </mxGeometry>
        </mxCell>
      </root>
    </mxGraphModel>
  </diagram>
</mxfile>
